<svg width="10" height="9" viewBox="0 0 10 9" fill="none" xmlns="http://www.w3.org/2000/svg">
<g clip-path="url(#clip0_23_1772)">
<path d="M9.9552 4.5C9.9552 2.01472 7.94048 0 5.4552 0C2.96992 0 0.9552 2.01472 0.9552 4.5C0.9552 6.74605 2.60078 8.60774 4.75208 8.94533V5.80078H3.6095V4.5H4.75208V3.50859C4.75208 2.38078 5.42391 1.75781 6.45179 1.75781C6.94398 1.75781 7.45911 1.8457 7.45911 1.8457V2.95312H6.89168C6.3327 2.95312 6.15833 3.30003 6.15833 3.65625V4.5H7.40637L7.20686 5.80078H6.15833V8.94533C8.30962 8.60774 9.9552 6.74605 9.9552 4.5Z" fill="#ACAEB4"/>
</g>
<defs>
<clipPath id="clip0_23_1772">
<rect width="9" height="9" fill="white" transform="translate(0.9552)"/>
</clipPath>
</defs>
</svg>
