<svg width="10" height="9" viewBox="0 0 10 9" fill="none" xmlns="http://www.w3.org/2000/svg">
<g clip-path="url(#clip0_23_1774)">
<path fill-rule="evenodd" clip-rule="evenodd" d="M5.4552 0C2.96985 0 0.9552 2.0178 0.9552 4.50765C0.9552 6.4989 2.24445 8.18865 4.03275 8.78445C4.25775 8.82585 4.33965 8.6868 4.33965 8.5671C4.33965 8.46045 4.33605 8.1765 4.3338 7.80075C3.0819 8.073 2.81775 7.1964 2.81775 7.1964C2.61345 6.6753 2.31825 6.5367 2.31825 6.5367C1.90965 6.2577 2.3493 6.2631 2.3493 6.2631C2.80065 6.2946 3.03825 6.7275 3.03825 6.7275C3.43965 7.416 4.0917 7.2171 4.34775 7.1019C4.38915 6.81075 4.50525 6.6123 4.63395 6.4998C3.63495 6.38595 2.5842 5.99895 2.5842 4.27185C2.5842 3.78 2.7597 3.37725 3.04725 3.06225C3.0009 2.9484 2.84655 2.48985 3.09135 1.86975C3.09135 1.86975 3.46935 1.74825 4.32885 2.33145C4.69595 2.23133 5.0747 2.18034 5.4552 2.1798C5.8377 2.1816 6.22245 2.23155 6.582 2.33145C7.44105 1.74825 7.81815 1.8693 7.81815 1.8693C8.06385 2.48985 7.90905 2.9484 7.86315 3.06225C8.15115 3.37725 8.32575 3.78 8.32575 4.27185C8.32575 6.00345 7.2732 6.3846 6.27105 6.4962C6.4326 6.63525 6.57615 6.9102 6.57615 7.33095C6.57615 7.93305 6.57075 8.4195 6.57075 8.5671C6.57075 8.6877 6.65175 8.8281 6.88035 8.784C7.77643 8.48345 8.5554 7.90889 9.10717 7.14152C9.65893 6.37416 9.95558 5.45279 9.9552 4.50765C9.9552 2.0178 7.9401 0 5.4552 0Z" fill="#ACAEB4"/>
</g>
<defs>
<clipPath id="clip0_23_1774">
<rect width="9" height="9" fill="white" transform="translate(0.9552)"/>
</clipPath>
</defs>
</svg>
