<svg width="10" height="9" viewBox="0 0 10 9" fill="none" xmlns="http://www.w3.org/2000/svg">
<g clip-path="url(#clip0_23_1776)">
<path d="M9.28899 0H1.61965C1.25227 0 0.9552 0.290039 0.9552 0.648633V8.34961C0.9552 8.7082 1.25227 9 1.61965 9H9.28899C9.65637 9 9.9552 8.7082 9.9552 8.35137V0.648633C9.9552 0.290039 9.65637 0 9.28899 0ZM3.62532 7.66934H2.28938V3.37324H3.62532V7.66934ZM2.95735 2.78789C2.52844 2.78789 2.18215 2.4416 2.18215 2.01445C2.18215 1.5873 2.52844 1.24102 2.95735 1.24102C3.3845 1.24102 3.73079 1.5873 3.73079 2.01445C3.73079 2.43984 3.3845 2.78789 2.95735 2.78789ZM8.62454 7.66934H7.29036V5.58105C7.29036 5.08359 7.28157 4.44199 6.59602 4.44199C5.90168 4.44199 5.79622 4.98516 5.79622 5.5459V7.66934H4.46379V3.37324H5.74348V3.96035H5.76106C5.9386 3.62285 6.37454 3.26602 7.02317 3.26602C8.37493 3.26602 8.62454 4.15547 8.62454 5.31211V7.66934Z" fill="#ACAEB4"/>
</g>
<defs>
<clipPath id="clip0_23_1776">
<rect width="9" height="9" fill="white" transform="translate(0.9552)"/>
</clipPath>
</defs>
</svg>
