<svg width="29" height="28" viewBox="0 0 29 28" fill="none" xmlns="http://www.w3.org/2000/svg">
<circle cx="14.335" cy="13.9759" r="13.8985" fill="#ED8E1F"/>
<path d="M19.4027 16.2644C18.3732 16.7301 17.2262 16.871 16.1146 16.6684C15.0029 16.4657 13.9795 15.9292 13.1805 15.1302C12.3815 14.3312 11.8449 13.3077 11.6423 12.1961C11.4396 11.0845 11.5806 9.93748 12.0462 8.90796C11.2266 9.27836 10.5091 9.84207 9.9552 10.5507C9.40132 11.2594 9.02763 12.0918 8.86618 12.9767C8.70474 13.8615 8.76036 14.7723 9.02827 15.6309C9.29619 16.4895 9.7684 17.2703 10.4044 17.9063C11.0404 18.5423 11.8212 19.0145 12.6798 19.2824C13.5384 19.5503 14.4492 19.6059 15.334 19.4445C16.2188 19.283 17.0513 18.9093 17.7599 18.3555C18.4686 17.8016 19.0323 17.0841 19.4027 16.2644V16.2644Z" fill="white"/>
</svg>
