<svg width="29" height="29" viewBox="0 0 29 29" fill="none" xmlns="http://www.w3.org/2000/svg">
<circle cx="14.335" cy="14.5582" r="13.8985" fill="#ED8E1F"/>
<path d="M17.5899 17.8325C17.8137 17.6102 18.1727 17.6102 18.3965 17.8325L19.876 19.0269H19.9014C20.2007 19.3294 20.2007 19.82 19.9014 20.1226C19.6021 20.4249 19.1167 20.425 18.8174 20.1226L17.5899 18.7153C17.4739 18.5984 17.4083 18.4395 17.4083 18.2739C17.4083 18.1083 17.4739 17.9494 17.5899 17.8325ZM13.5118 8.76709C14.829 8.7672 16.092 9.29636 17.0235 10.2378C17.955 11.1793 18.4785 12.4561 18.4786 13.7876C18.4786 16.5604 16.255 18.8089 13.5118 18.8091C10.7684 18.8091 8.54401 16.5605 8.54401 13.7876C8.54416 11.0148 10.7685 8.76709 13.5118 8.76709Z" fill="white"/>
</svg>
