<svg width="28" height="28" viewBox="0 0 28 28" fill="none" xmlns="http://www.w3.org/2000/svg">
<circle cx="13.9229" cy="13.9759" r="13.8985" fill="#ED8E1F"/>
<path d="M19.3866 8.52209C19.0969 8.22478 18.6682 8.11402 18.2684 8.23061L8.94682 10.9413C8.52506 11.0585 8.22612 11.3949 8.14559 11.8222C8.06333 12.257 8.35068 12.8091 8.72609 13.0399L11.6408 14.8313C11.9397 15.015 12.3255 14.9689 12.5729 14.7194L15.9105 11.361C16.0785 11.1862 16.3566 11.1862 16.5246 11.361C16.6926 11.5301 16.6926 11.8041 16.5246 11.979L13.1812 15.3379C12.9333 15.5868 12.8869 15.9745 13.0694 16.2753L14.8503 19.2192C15.0589 19.5689 15.4181 19.7671 15.812 19.7671C15.8584 19.7671 15.9105 19.7671 15.9569 19.7613C16.4087 19.703 16.7679 19.3941 16.9012 18.9569L19.6646 9.64718C19.7863 9.25077 19.6762 8.81939 19.3866 8.52209" fill="white"/>
<circle cx="18.5553" cy="9.34327" r="2.02687" fill="#E33939" stroke="#ED8E1F" stroke-width="0.579104"/>
</svg>
