<svg width="28" height="29" viewBox="0 0 28 29" fill="none" xmlns="http://www.w3.org/2000/svg">
<circle cx="13.9229" cy="14.5582" r="13.8985" fill="#ED8E1F"/>
<path d="M19.6036 15.0308C19.6556 15.0601 19.6553 15.1304 19.6553 15.1304L19.6094 18.1206C19.6092 19.3519 18.6238 20.3491 17.4073 20.3491H10.4317C9.21529 20.3489 8.23076 19.3518 8.23051 18.1206L8.18949 15.1304C8.18949 15.1304 8.18993 15.0604 8.24125 15.0308C8.2876 15.0014 8.34581 15.0366 8.3516 15.0425C9.52185 15.8282 10.93 16.3499 12.4073 16.5669C12.6157 16.5962 12.8247 16.4613 12.8829 16.2505C13.0103 15.7697 13.4218 15.4528 13.9141 15.4526H13.9317C14.424 15.4528 14.8355 15.7697 14.9629 16.2505C15.021 16.4611 15.2293 16.5959 15.4375 16.5669C16.9147 16.35 18.323 15.828 19.4932 15.0425C19.4932 15.0425 19.5052 15.0365 19.5166 15.0308C19.5398 15.019 19.5746 15.0132 19.6036 15.0308ZM13.92 16.2915C13.6826 16.2917 13.4855 16.4907 13.4854 16.731V17.4878C13.4857 17.7337 13.6828 17.9271 13.92 17.9272C14.163 17.9271 14.3542 17.7337 14.3545 17.4878V16.731C14.3544 16.4907 14.1631 16.2916 13.92 16.2915ZM14.667 8.76709C15.536 8.76709 16.2492 9.42959 16.3594 10.2798H17.5069C18.7233 10.28 19.7138 11.2829 19.7139 12.5142C19.7139 12.5142 19.6796 13.0362 19.668 13.7622C19.6667 13.8195 19.6385 13.8757 19.5928 13.9097C19.3142 14.1155 19.0593 14.2856 19.0362 14.2974C18.0744 14.9424 16.9563 15.3958 15.7657 15.6216C15.6882 15.6367 15.6117 15.5968 15.5723 15.5278C15.2386 14.9496 14.6152 14.5728 13.92 14.5728C13.2294 14.5728 12.6005 14.9452 12.2569 15.5239C12.2169 15.5919 12.1415 15.6312 12.0645 15.6167C10.8837 15.3903 9.76561 14.9372 8.80961 14.3032L8.25394 13.9155C8.20759 13.8862 8.17777 13.8335 8.17777 13.7749C8.16039 13.4754 8.13187 12.5142 8.13187 12.5142C8.132 11.2829 9.12246 10.28 10.3389 10.2798H11.4805C11.5907 9.42958 12.3039 8.76709 13.1729 8.76709H14.667ZM13.1729 9.64697C12.7848 9.64697 12.4542 9.91635 12.3614 10.2798H15.4786C15.3857 9.91636 15.0551 9.64697 14.667 9.64697H13.1729Z" fill="white"/>
</svg>
